<svg width="51" height="42" viewBox="0 0 51 42" fill="none" xmlns="http://www.w3.org/2000/svg">
<path d="M5.41623 38.8522L5.31817 39.3425L5.41623 38.8522ZM46.2722 38.8522L46.3703 39.3425L46.2722 38.8522ZM46.5527 3.06886L46.6574 2.57996L46.5527 3.06886ZM5.13574 3.06886L5.2405 3.55777L5.13574 3.06886ZM20.9213 13.4002L21.1785 12.9714C21.0241 12.8787 20.8317 12.8763 20.6749 12.9651C20.5182 13.0538 20.4213 13.22 20.4213 13.4002H20.9213ZM20.9213 28.169H20.4213C20.4213 28.3491 20.5182 28.5153 20.6749 28.6041C20.8317 28.6929 21.0241 28.6904 21.1785 28.5977L20.9213 28.169ZM33.2286 20.7846L33.4859 21.2133C33.6365 21.123 33.7286 20.9602 33.7286 20.7846C33.7286 20.6089 33.6365 20.4462 33.4859 20.3558L33.2286 20.7846ZM0.729492 7.90084V33.7452H1.72949V7.90084H0.729492ZM50.9589 33.7452V7.90084H49.9589V33.7452H50.9589ZM5.31817 39.3425C18.868 42.0525 32.8204 42.0525 46.3703 39.3425L46.1741 38.3619C32.7537 41.046 18.9347 41.046 5.51429 38.3619L5.31817 39.3425ZM46.6574 2.57996C32.9377 -0.359987 18.7507 -0.359988 5.03097 2.57996L5.2405 3.55777C18.8222 0.647411 32.8663 0.647412 46.4479 3.55777L46.6574 2.57996ZM50.9589 7.90084C50.9589 5.33489 49.1664 3.1176 46.6574 2.57996L46.4479 3.55777C48.4958 3.99661 49.9589 5.80642 49.9589 7.90084H50.9589ZM49.9589 33.7452C49.9589 35.9895 48.3748 37.9218 46.1741 38.3619L46.3703 39.3425C49.0384 38.8089 50.9589 36.4662 50.9589 33.7452H49.9589ZM0.729492 33.7452C0.729492 36.4662 2.65005 38.8089 5.31817 39.3425L5.51429 38.3619C3.31359 37.9218 1.72949 35.9895 1.72949 33.7452H0.729492ZM1.72949 7.90084C1.72949 5.80643 3.19258 3.99661 5.2405 3.55777L5.03098 2.57996C2.52198 3.1176 0.729492 5.33489 0.729492 7.90084H1.72949ZM20.4213 13.4002V28.169H21.4213V13.4002H20.4213ZM21.1785 28.5977L33.4859 21.2133L32.9714 20.3558L20.664 27.7403L21.1785 28.5977ZM33.4859 20.3558L21.1785 12.9714L20.664 13.8289L32.9714 21.2133L33.4859 20.3558Z" fill="#A9A3A3"/>
</svg>
